<svg width="12" height="12" viewBox="0 0 12 12" fill="none" xmlns="http://www.w3.org/2000/svg">
<path d="M11.8333 2.32161L9.15001 0.0849609L8.39751 0.97151L11.0808 3.20816L11.8333 2.32161ZM3.59667 0.97151L2.85001 0.0849609L0.166672 2.31582L0.919172 3.20237L3.59667 0.97151ZM6.29167 3.64275H5.41667V7.11941L8.18751 8.77083L8.62501 8.05811L6.29167 6.68483V3.64275ZM6.00001 1.32497C3.10084 1.32497 0.750005 3.66013 0.750005 6.53997C0.750005 9.4198 3.09501 11.755 6.00001 11.755C8.89917 11.755 11.25 9.4198 11.25 6.53997C11.25 3.66013 8.89917 1.32497 6.00001 1.32497ZM6.00001 10.5961C3.74251 10.5961 1.91667 8.78241 1.91667 6.53997C1.91667 4.29752 3.74251 2.48386 6.00001 2.48386C8.25751 2.48386 10.0833 4.29752 10.0833 6.53997C10.0833 8.78241 8.25751 10.5961 6.00001 10.5961Z" fill="#FF6D6D" fill-opacity="0.87"/>
</svg>
