<svg width="24" height="21" viewBox="0 0 24 21" fill="none" xmlns="http://www.w3.org/2000/svg">
<path d="M23.3364 3.62303L16.1364 0.123325C15.9697 0.0422244 15.7858 0 15.5994 0C15.413 0 15.2291 0.0422244 15.0624 0.123325L8.4 3.36288L1.7364 0.123325C1.5534 0.0344292 1.35007 -0.00751158 1.14571 0.00148606C0.941346 0.0104837 0.742744 0.0701209 0.568763 0.174733C0.394782 0.279346 0.251201 0.42546 0.151655 0.599199C0.0521092 0.772937 -9.52197e-05 0.968531 1.30381e-07 1.1674V16.3328C1.30381e-07 16.7749 0.2568 17.1785 0.6636 17.3769L7.8636 20.8766C8.03032 20.9577 8.21418 20.9999 8.4006 20.9999C8.58702 20.9999 8.77088 20.9577 8.9376 20.8766L15.6 17.637L22.2636 20.8754C22.4461 20.9651 22.6493 21.0077 22.8536 20.9989C23.0579 20.9901 23.2564 20.9303 23.43 20.8252C23.784 20.6117 24 20.2373 24 19.8325V4.6671C24 4.22498 23.7432 3.82134 23.3364 3.62303ZM9.6 5.38804L14.4 3.05491V15.6118L9.6 17.945V5.38804ZM2.4 3.05491L7.2 5.38804V17.945L2.4 15.6118V3.05491ZM21.6 17.945L16.8 15.6118V3.05491L21.6 5.38804V17.945Z" fill="#EB5757"/>
</svg>
