<svg width="40" height="40" viewBox="0 0 40 40" fill="none" xmlns="http://www.w3.org/2000/svg">
<g filter="url(#filter0_d_585_1965)">
<circle cx="20" cy="16" r="15" fill="white"/>
</g>
<path d="M20 6C16 6 12 6.5 12 10V19.5C12 21.43 13.57 23 15.5 23L14 24.5V25H16.23L18.23 23H22L24 25H26V24.5L24.5 23C26.43 23 28 21.43 28 19.5V10C28 6.5 24.42 6 20 6ZM15.5 21C14.67 21 14 20.33 14 19.5C14 18.67 14.67 18 15.5 18C16.33 18 17 18.67 17 19.5C17 20.33 16.33 21 15.5 21ZM19 14H14V10H19V14ZM21 14V10H26V14H21ZM24.5 21C23.67 21 23 20.33 23 19.5C23 18.67 23.67 18 24.5 18C25.33 18 26 18.67 26 19.5C26 20.33 25.33 21 24.5 21Z" fill="black" fill-opacity="0.87"/>
<defs>
<filter id="filter0_d_585_1965" x="0" y="0" width="40" height="40" filterUnits="userSpaceOnUse" color-interpolation-filters="sRGB">
<feFlood flood-opacity="0" result="BackgroundImageFix"/>
<feColorMatrix in="SourceAlpha" type="matrix" values="0 0 0 0 0 0 0 0 0 0 0 0 0 0 0 0 0 0 127 0" result="hardAlpha"/>
<feOffset dy="4"/>
<feGaussianBlur stdDeviation="2.5"/>
<feComposite in2="hardAlpha" operator="out"/>
<feColorMatrix type="matrix" values="0 0 0 0 0 0 0 0 0 0 0 0 0 0 0 0 0 0 0.25 0"/>
<feBlend mode="normal" in2="BackgroundImageFix" result="effect1_dropShadow_585_1965"/>
<feBlend mode="normal" in="SourceGraphic" in2="effect1_dropShadow_585_1965" result="shape"/>
</filter>
</defs>
</svg>
